<svg width="375" height="667" viewBox="0 0 375 667" fill="none" xmlns="http://www.w3.org/2000/svg">
<g clip-path="url(#clip0)">
<path d="M375 0H0V667H375V0Z" fill="#ECECEC"/>
<g filter="url(#filter0_d)">
<rect y="599" width="375" height="68" fill="white"/>
</g>
<path d="M333.646 626.333C334.561 626.333 335.439 626.684 336.086 627.31C336.734 627.935 337.097 628.783 337.097 629.667C337.097 630.551 336.734 631.398 336.086 632.024C335.439 632.649 334.561 633 333.646 633C332.73 633 331.853 632.649 331.205 632.024C330.558 631.398 330.194 630.551 330.194 629.667C330.194 628.783 330.558 627.935 331.205 627.31C331.853 626.684 332.73 626.333 333.646 626.333V626.333ZM333.646 634.667C337.46 634.667 340.549 636.158 340.549 638V639.667H326.743V638C326.743 636.158 329.832 634.667 333.646 634.667Z" fill="#C1C1C1"/>
<path d="M240.197 638C239.239 638 238.471 638.741 238.471 639.666C238.471 640.108 238.653 640.532 238.977 640.845C239.3 641.158 239.739 641.333 240.197 641.333C240.655 641.333 241.094 641.158 241.417 640.845C241.741 640.532 241.923 640.108 241.923 639.666C241.923 638.741 241.146 638 240.197 638ZM226.391 624.667V626.333H228.117L231.223 632.658L230.05 634.7C229.92 634.933 229.843 635.208 229.843 635.5C229.843 635.942 230.025 636.366 230.348 636.678C230.672 636.991 231.111 637.166 231.569 637.166H241.923V635.5H231.931C231.874 635.5 231.819 635.478 231.778 635.439C231.738 635.4 231.715 635.347 231.715 635.291C231.715 635.25 231.724 635.216 231.741 635.191L232.518 633.833H238.946C239.593 633.833 240.163 633.483 240.456 632.975L243.545 627.583C243.605 627.45 243.648 627.308 243.648 627.167C243.648 626.946 243.558 626.734 243.396 626.577C243.234 626.421 243.014 626.333 242.786 626.333H230.024L229.213 624.667H226.391ZM231.569 638C230.611 638 229.843 638.741 229.843 639.666C229.843 640.108 230.025 640.532 230.348 640.845C230.672 641.158 231.111 641.333 231.569 641.333C232.026 641.333 232.465 641.158 232.789 640.845C233.112 640.532 233.294 640.108 233.294 639.666C233.294 638.741 232.518 638 231.569 638Z" fill="#C1C1C1"/>
<path d="M139.117 638H133.94V634.667H139.117V638ZM146.883 634.667V633L146.02 628.833H132.214L131.352 633V634.667H132.214V639.667H140.843V634.667H144.294V639.667H146.02V634.667H146.883ZM146.02 626.333H132.214V628H146.02V626.333Z" fill="#6F6F6F"/>
<path d="M39.6285 639.667V634.667H43.0799V639.667H47.3942V633H49.9827L41.3542 625.5L32.7257 633H35.3143V639.667H39.6285Z" fill="#04AA6D"/>
</g>
<defs>
<filter id="filter0_d" x="-6" y="590" width="387" height="80" filterUnits="userSpaceOnUse" color-interpolation-filters="sRGB">
<feFlood flood-opacity="0" result="BackgroundImageFix"/>
<feColorMatrix in="SourceAlpha" type="matrix" values="0 0 0 0 0 0 0 0 0 0 0 0 0 0 0 0 0 0 127 0" result="hardAlpha"/>
<feOffset dy="-3"/>
<feGaussianBlur stdDeviation="3"/>
<feComposite in2="hardAlpha" operator="out"/>
<feColorMatrix type="matrix" values="0 0 0 0 0 0 0 0 0 0 0 0 0 0 0 0 0 0 0.25 0"/>
<feBlend mode="normal" in2="BackgroundImageFix" result="effect1_dropShadow"/>
<feBlend mode="normal" in="SourceGraphic" in2="effect1_dropShadow" result="shape"/>
</filter>
<clipPath id="clip0">
<rect width="375" height="667" fill="white"/>
</clipPath>
</defs>
</svg>
