<svg width="1440" height="1024" viewBox="0 0 1440 1024" fill="none" xmlns="http://www.w3.org/2000/svg">
<g clip-path="url(#clip0)">
<rect width="1440" height="1024" fill="#ECECEC"/>
<rect width="1440" height="1024" fill="#ECECEC"/>
<rect x="105" width="1024" height="104" transform="rotate(90 105 0)" fill="white"/>
<g filter="url(#filter0_d)">
<rect width="1440" height="104" fill="white"/>
</g>
<path d="M53 820.667C54.7681 820.667 56.4638 821.369 57.714 822.619C58.9642 823.87 59.6666 825.565 59.6666 827.333C59.6666 829.101 58.9642 830.797 57.714 832.047C56.4638 833.298 54.7681 834 53 834C51.2318 834 49.5362 833.298 48.2859 832.047C47.0357 830.797 46.3333 829.101 46.3333 827.333C46.3333 825.565 47.0357 823.87 48.2859 822.619C49.5362 821.369 51.2318 820.667 53 820.667V820.667ZM53 837.333C60.3666 837.333 66.3333 840.317 66.3333 844V847.333H39.6666V844C39.6666 840.317 45.6333 837.333 53 837.333Z" fill="#C1C1C1"/>
<path d="M61.3333 664C59.4833 664 58 665.483 58 667.333C58 668.217 58.3511 669.065 58.9763 669.69C59.6014 670.315 60.4492 670.667 61.3333 670.667C62.2173 670.667 63.0652 670.315 63.6903 669.69C64.3154 669.065 64.6666 668.217 64.6666 667.333C64.6666 665.483 63.1666 664 61.3333 664ZM34.6666 637.333V640.667H38L44 653.317L41.7333 657.4C41.4833 657.867 41.3333 658.417 41.3333 659C41.3333 659.884 41.6845 660.732 42.3096 661.357C42.9347 661.982 43.7826 662.333 44.6666 662.333H64.6666V659H45.3666C45.2561 659 45.1501 658.956 45.072 658.878C44.9939 658.8 44.95 658.694 44.95 658.583C44.95 658.5 44.9666 658.433 45 658.383L46.5 655.667H58.9166C60.1666 655.667 61.2666 654.967 61.8333 653.95L67.8 643.167C67.9166 642.9 68 642.617 68 642.333C68 641.891 67.8244 641.467 67.5118 641.155C67.1992 640.842 66.7753 640.667 66.3333 640.667H41.6833L40.1166 637.333H34.6666ZM44.6666 664C42.8166 664 41.3333 665.483 41.3333 667.333C41.3333 668.217 41.6845 669.065 42.3096 669.69C42.9347 670.315 43.7826 670.667 44.6666 670.667C45.5507 670.667 46.3985 670.315 47.0236 669.69C47.6488 669.065 48 668.217 48 667.333C48 665.483 46.5 664 44.6666 664Z" fill="#C1C1C1"/>
<path d="M53 484H43V477.333H53V484ZM68 477.333V474L66.3333 465.667H39.6667L38 474V477.333H39.6667V487.333H56.3333V477.333H63V487.333H66.3333V477.333H68ZM66.3333 460.667H39.6667V464H66.3333V460.667Z" fill="#6F6F6F"/>
<path d="M49.6667 307.333V297.333H56.3334V307.333H64.6667V294H69.6667L53 279L36.3334 294H41.3334V307.333H49.6667Z" fill="#04AA6D"/>
</g>
<defs>
<filter id="filter0_d" x="-6" y="-3" width="1452" height="116" filterUnits="userSpaceOnUse" color-interpolation-filters="sRGB">
<feFlood flood-opacity="0" result="BackgroundImageFix"/>
<feColorMatrix in="SourceAlpha" type="matrix" values="0 0 0 0 0 0 0 0 0 0 0 0 0 0 0 0 0 0 127 0" result="hardAlpha"/>
<feOffset dy="3"/>
<feGaussianBlur stdDeviation="3"/>
<feComposite in2="hardAlpha" operator="out"/>
<feColorMatrix type="matrix" values="0 0 0 0 0 0 0 0 0 0 0 0 0 0 0 0 0 0 0.25 0"/>
<feBlend mode="normal" in2="BackgroundImageFix" result="effect1_dropShadow"/>
<feBlend mode="normal" in="SourceGraphic" in2="effect1_dropShadow" result="shape"/>
</filter>
<clipPath id="clip0">
<rect width="1440" height="1024" fill="white"/>
</clipPath>
</defs>
</svg>
